<svg width="165" height="39" viewBox="0 0 165 39" fill="none" xmlns="http://www.w3.org/2000/svg">
<path d="M37.04 30V9H44.75C46.43 9 47.81 9.29 48.89 9.87C49.99 10.43 50.81 11.2 51.35 12.18C51.89 13.14 52.16 14.21 52.16 15.39C52.16 16.67 51.82 17.84 51.14 18.9C50.48 19.96 49.44 20.73 48.02 21.21L52.37 30H47.96L44.06 21.72H40.88V30H37.04ZM40.88 18.9H44.51C45.79 18.9 46.73 18.59 47.33 17.97C47.93 17.35 48.23 16.53 48.23 15.51C48.23 14.51 47.93 13.71 47.33 13.11C46.75 12.51 45.8 12.21 44.48 12.21H40.88V18.9ZM59.7214 30.36C57.8614 30.36 56.4214 29.78 55.4014 28.62C54.4014 27.46 53.9014 25.76 53.9014 23.52V15.12H57.7114V23.16C57.7114 24.44 57.9714 25.42 58.4914 26.1C59.0114 26.78 59.8314 27.12 60.9514 27.12C62.0114 27.12 62.8814 26.74 63.5614 25.98C64.2614 25.22 64.6114 24.16 64.6114 22.8V15.12H68.4514V30H65.0614L64.7614 27.48C64.3014 28.36 63.6314 29.06 62.7514 29.58C61.8914 30.1 60.8814 30.36 59.7214 30.36ZM70.8934 30V15.12H74.2834L74.5834 17.64C75.0434 16.76 75.7034 16.06 76.5634 15.54C77.4434 15.02 78.4734 14.76 79.6534 14.76C81.4934 14.76 82.9234 15.34 83.9434 16.5C84.9634 17.66 85.4734 19.36 85.4734 21.6V30H81.6334V21.96C81.6334 20.68 81.3734 19.7 80.8534 19.02C80.3334 18.34 79.5234 18 78.4234 18C77.3434 18 76.4534 18.38 75.7534 19.14C75.0734 19.9 74.7334 20.96 74.7334 22.32V30H70.8934ZM87.6453 36.6V15.12H91.0653L91.4853 17.25C91.9653 16.59 92.5953 16.01 93.3753 15.51C94.1753 15.01 95.2053 14.76 96.4653 14.76C97.8653 14.76 99.1153 15.1 100.215 15.78C101.315 16.46 102.185 17.39 102.825 18.57C103.465 19.75 103.785 21.09 103.785 22.59C103.785 24.09 103.465 25.43 102.825 26.61C102.185 27.77 101.315 28.69 100.215 29.37C99.1153 30.03 97.8653 30.36 96.4653 30.36C95.3453 30.36 94.3653 30.15 93.5253 29.73C92.6853 29.31 92.0053 28.72 91.4853 27.96V36.6H87.6453ZM95.6553 27C96.8753 27 97.8853 26.59 98.6853 25.77C99.4853 24.95 99.8853 23.89 99.8853 22.59C99.8853 21.29 99.4853 20.22 98.6853 19.38C97.8853 18.54 96.8753 18.12 95.6553 18.12C94.4153 18.12 93.3953 18.54 92.5953 19.38C91.8153 20.2 91.4253 21.26 91.4253 22.56C91.4253 23.86 91.8153 24.93 92.5953 25.77C93.3953 26.59 94.4153 27 95.6553 27ZM112.856 30.36C111.416 30.36 110.116 30.03 108.956 29.37C107.816 28.71 106.906 27.8 106.226 26.64C105.566 25.46 105.236 24.1 105.236 22.56C105.236 21.02 105.576 19.67 106.256 18.51C106.936 17.33 107.846 16.41 108.986 15.75C110.146 15.09 111.446 14.76 112.886 14.76C114.306 14.76 115.586 15.09 116.726 15.75C117.886 16.41 118.796 17.33 119.456 18.51C120.136 19.67 120.476 21.02 120.476 22.56C120.476 24.1 120.136 25.46 119.456 26.64C118.796 27.8 117.886 28.71 116.726 29.37C115.566 30.03 114.276 30.36 112.856 30.36ZM112.856 27.03C113.856 27.03 114.726 26.66 115.466 25.92C116.206 25.16 116.576 24.04 116.576 22.56C116.576 21.08 116.206 19.97 115.466 19.23C114.726 18.47 113.866 18.09 112.886 18.09C111.866 18.09 110.986 18.47 110.246 19.23C109.526 19.97 109.166 21.08 109.166 22.56C109.166 24.04 109.526 25.16 110.246 25.92C110.986 26.66 111.856 27.03 112.856 27.03ZM128.453 30C126.893 30 125.643 29.62 124.703 28.86C123.763 28.1 123.293 26.75 123.293 24.81V18.33H120.743V15.12H123.293L123.743 11.13H127.133V15.12H131.153V18.33H127.133V24.84C127.133 25.56 127.283 26.06 127.583 26.34C127.903 26.6 128.443 26.73 129.203 26.73H131.063V30H128.453ZM135.02 12.81C134.32 12.81 133.74 12.6 133.28 12.18C132.84 11.76 132.62 11.23 132.62 10.59C132.62 9.95 132.84 9.43 133.28 9.03C133.74 8.61 134.32 8.4 135.02 8.4C135.72 8.4 136.29 8.61 136.73 9.03C137.19 9.43 137.42 9.95 137.42 10.59C137.42 11.23 137.19 11.76 136.73 12.18C136.29 12.6 135.72 12.81 135.02 12.81ZM133.1 30V15.12H136.94V30H133.1ZM140.138 30V18.33H138.098V15.12H140.138V13.38C140.138 11.58 140.588 10.3 141.488 9.54C142.408 8.78 143.648 8.4 145.208 8.4H146.858V11.67H145.808C145.148 11.67 144.678 11.8 144.398 12.06C144.118 12.32 143.978 12.76 143.978 13.38V15.12H147.188V18.33H143.978V30H140.138ZM150.589 36.6L154.039 29.01H153.139L147.349 15.12H151.519L155.689 25.59L160.039 15.12H164.119L154.669 36.6H150.589Z" fill="white"/>
<path fill-rule="evenodd" clip-rule="evenodd" d="M12.6988 30.3976C19.7122 30.3976 25.3976 24.7122 25.3976 17.6988C25.3976 10.6855 19.7122 5 12.6988 5C5.68545 5 0 10.6855 0 17.6988C0 24.7122 5.68545 30.3976 12.6988 30.3976ZM3.49822 15.2922C7.26681 11.2 14.0776 10.0282 19.7502 12.8947C22.9581 14.5157 21.275 15.5552 19.7343 14.8891C15.0352 12.8573 9.70498 12.4161 5.0304 17.0329C2.06063 19.966 0.702166 18.3282 3.49822 15.2922ZM19.4119 17.7286C14.9544 15.5436 9.60327 16.4351 6.64301 19.5522C4.44669 21.8649 5.51436 23.1129 7.84719 20.8788C11.5192 17.3621 15.7073 17.6992 19.3999 19.2482C20.6105 19.756 21.9327 18.9643 19.4119 17.7286ZM8.92144 23.5729C11.2766 21.0399 15.5333 20.3148 19.0788 22.0895C21.0838 23.0932 20.0319 23.7366 19.069 23.3242C16.1319 22.0662 12.8005 21.7928 9.87914 24.6506C8.02317 26.4662 7.17405 25.4523 8.92144 23.5729Z" fill="white"/>
<path d="M3.60629 34.3713C4.47056 30.8329 7.05309 29.1058 8.23632 28.6845C10.2941 28.2633 13.5763 27.8842 10.2427 29.7376C6.90904 31.5911 6.48719 34.1607 6.69297 35.2138C5.30396 36.4073 2.74202 37.9097 3.60629 34.3713Z" fill="white"/>
<path d="M24.4129 33.0174C20.9545 33.5782 18.9876 32.5603 17.9853 31.4521C16.505 29.3927 14.599 25.1719 17.9853 28.0114C21.3717 30.8509 19.9865 31.3059 24.4129 30.7236C26.1793 31.7281 27.8713 32.4566 24.4129 33.0174Z" fill="white"/>
<ellipse cx="4.94492" cy="35.908" rx="3.60459" ry="1.80229" transform="rotate(-16.0127 4.94492 35.908)" fill="white"/>
<ellipse cx="24.6415" cy="31.7858" rx="3.60459" ry="1.80229" transform="rotate(-99.2553 24.6415 31.7858)" fill="white"/>
</svg>
